<svg xmlns="http://www.w3.org/2000/svg" viewBox="0 0 212.45 37.36"><defs><style>.cls-1{fill:#fff;}</style></defs><title>Asset 1</title><g id="Layer_2" data-name="Layer 2"><g id="Layer_1-2" data-name="Layer 1"><path class="cls-1" d="M44.57,21.08a.62.62,0,0,1,0,.63,1,1,0,0,1-.9.49h0q-12.07-.14-20.83.45a1.87,1.87,0,0,0-1.49,1q-1.58,3-2.57,4.94c-.66,1.33-1.44,2.94-2.34,4.85l-.18.33a1,1,0,0,1-.84.47,1.07,1.07,0,0,1-.47-.1.76.76,0,0,1-.33-.31.63.63,0,0,1,0-.55q1.42-3,2.42-4.94c.65-1.33,1.51-3,2.57-5a.32.32,0,0,0,0-.33.33.33,0,0,0-.27-.14c-2.81.25-5.56.56-8.27.92a5.49,5.49,0,0,1-1.48.47.9.9,0,0,1-.36,0,1.05,1.05,0,0,1-.35-.13Q4.78,24.75,1,25.57a.87.87,0,0,1-.64-.08.63.63,0,0,1-.17-.95,1,1,0,0,1,.64-.36q4.06-.88,8.43-1.53A11.71,11.71,0,0,1,14.4,19.2a1.21,1.21,0,0,1,.55,0l1.62-1.38c1.94-1.67,3.82-3.36,5.66-5.08L35.78.28a1.14,1.14,0,0,1,1.47,0,.38.38,0,0,1,.1.17.43.43,0,0,1,0,.28.88.88,0,0,1-.22.37A89.09,89.09,0,0,0,22.86,20.73a.32.32,0,0,0,0,.35.27.27,0,0,0,.25.12q8.67-.57,20.81-.43A.75.75,0,0,1,44.57,21.08ZM21.12,20.5a109.18,109.18,0,0,1,7-11.14c-2.25,2.06-4.53,4.14-6.81,6.24-1.73,1.59-3.67,3.26-5.79,5l-.55.45c-.39.33-.79.66-1.2,1,1.92-.23,3.89-.43,5.9-.58A1.9,1.9,0,0,0,21.12,20.5Z"/><path class="cls-1" d="M30.65,17.19a.74.74,0,0,1,.63-.35A1.05,1.05,0,0,1,32,17a.4.4,0,0,1,.11.57q-2.17,3.78-4.43,7.54a4.26,4.26,0,0,1,2,.86c.23.19.29.38.17.55a1,1,0,0,1-.59.35.93.93,0,0,1-.73-.12,2.17,2.17,0,0,0-1.61-.41l-.31.51c-.12.19-.24.4-.36.61-.36.6-.72,1.22-1.07,1.85a27.21,27.21,0,0,1-4.37,6.21.84.84,0,0,1-.54.23,1,1,0,0,1-.6-.09.49.49,0,0,1-.25-.51,15.94,15.94,0,0,1,2.07-5.63,9.17,9.17,0,0,1,4.39-4.24Q28.31,21.26,30.65,17.19ZM21.57,32.5q1.35-2,2.5-4.08l.22-.41a13.43,13.43,0,0,0-1.75,2.37A10.66,10.66,0,0,0,21.57,32.5ZM33,13.59a.88.88,0,0,1,.51.86.93.93,0,0,1-.63.78.87.87,0,0,1-.8-.06.71.71,0,0,1-.59-.31.85.85,0,0,1,.14-1,1.08,1.08,0,0,1,.65-.35A1.17,1.17,0,0,1,33,13.59Z"/><path class="cls-1" d="M37.44,25.23a.71.71,0,0,1,.68.14.57.57,0,0,1,.18.54c0,.2-.21.35-.51.46a11.09,11.09,0,0,1-2.82.31h-.33a5.22,5.22,0,0,1-.88,0,2.59,2.59,0,0,1-.84-.21,1.18,1.18,0,0,1-.66-1,2.53,2.53,0,0,1,.33-1.2,4.76,4.76,0,0,1,.72-1A.77.77,0,0,1,34,23a1,1,0,0,1,.62.28c.15.17.14.36-.05.58l-.43.55a2.31,2.31,0,0,0-.31.63c0,.22,0,.35.08.4a1.05,1.05,0,0,0,.43.05.71.71,0,0,1,.21,0A10.54,10.54,0,0,0,37.44,25.23ZM34.9,22.55a1.18,1.18,0,0,1-.56,0,.71.71,0,0,1-.44-.31.83.83,0,0,1-.06-.69.94.94,0,0,1,.9-.62.9.9,0,0,1,.58-.16,1,1,0,0,1,.56.22.6.6,0,0,1,.09.86,1.72,1.72,0,0,1-.47.46A1.59,1.59,0,0,1,34.9,22.55Z"/><path class="cls-1" d="M58.72,25.14a.77.77,0,0,1,.65.23.61.61,0,0,1,.18.52c0,.18-.2.28-.5.32q-6.12.42-12.27.47c-.33,0-.71,0-1.16.06a14.71,14.71,0,0,1-2.11.09,3.21,3.21,0,0,1-1.76-.5,1,1,0,0,1-.4-.63,1.68,1.68,0,0,1,0-.7,26,26,0,0,0-3.27,1.8.9.9,0,0,1-.48.12.92.92,0,0,1-.5-.14.44.44,0,0,1-.2-.43,9.77,9.77,0,0,1,.81-3.05.67.67,0,0,1,.54-.36,1,1,0,0,1,.66.16.42.42,0,0,1,.15.55,9.84,9.84,0,0,0-.51,1.47A28.72,28.72,0,0,1,42,23.45a1,1,0,0,1,.43,0,.83.83,0,0,1,.43.17.46.46,0,0,1,.18.39c0,.13-.06.27-.1.43a4.62,4.62,0,0,0-.11.63.67.67,0,0,0,.17.53.79.79,0,0,0,.39.09,3.63,3.63,0,0,0,.66,0l.65-.05a3.33,3.33,0,0,1,.38,0c1.38,0,2.76,0,4.15,0Q54,25.45,58.72,25.14Z"/><path class="cls-1" d="M76.55,25.37a.76.76,0,0,1,.62.31.52.52,0,0,1,0,.55.68.68,0,0,1-.6.3q-6.81-.09-13.64-.14l-.24,0h-.08a3,3,0,0,1-2-.67l-.16-.17-1.68,1a1,1,0,0,1-.63,0,.68.68,0,0,1-.49-.42,3,3,0,0,1,.29-1.9,10.74,10.74,0,0,1,1.08-1.77,7.78,7.78,0,0,0,.61-.93q1.79-3,3.66-5.85a.66.66,0,0,1,.61-.24,1,1,0,0,1,.64.28.47.47,0,0,1,.06.61q-1.42,2.2-2.82,4.44L60.46,23a4.27,4.27,0,0,1-.33.51,13.6,13.6,0,0,0-.72,1.2c.15-.11.31-.21.46-.3l.28-.15a1,1,0,0,1,.08-.32,2.16,2.16,0,0,1,1-1,2.29,2.29,0,0,1,1.53-.23,1,1,0,0,1,1,.4.35.35,0,0,1,0,.42.42.42,0,0,1-.22.45.89.89,0,0,1-.6.12l-1.29.8a.56.56,0,0,0,.39.31,2.62,2.62,0,0,0,.57.06l.21,0h.1Q69.72,25.32,76.55,25.37Z"/><path class="cls-1" d="M90.9,24.12a.87.87,0,0,1,.65.24.58.58,0,0,1,.18.52c0,.18-.2.29-.52.31-.83.06-1.67.1-2.5.14q-2.89.12-5.78.37a12.32,12.32,0,0,0-3.79.88c-.36.5-.7,1-1,1.55a14.14,14.14,0,0,1-2.37,3.11.69.69,0,0,1-.66.12.7.7,0,0,1-.51-.43,3,3,0,0,1,.56-2.77,8.14,8.14,0,0,1,2.45-2.1,1.65,1.65,0,0,1-1.29-.38A1.46,1.46,0,0,1,76,24a1.93,1.93,0,0,1,1.35-1.13A.71.71,0,0,1,78,23a.54.54,0,0,1,.18.52c0,.19-.21.32-.49.38a.77.77,0,0,0-.37.8.93.93,0,0,0,.8,0,6.48,6.48,0,0,0,2-1l.1-.06a.91.91,0,0,1,1.18.31c.09.17,0,.35-.22.53a4,4,0,0,0-.53.41A36.33,36.33,0,0,1,88,24.22C89,24.2,90,24.17,90.9,24.12Z"/><path class="cls-1" d="M104.6,24.43a.84.84,0,0,1,.65.25.57.57,0,0,1,.19.51c0,.19-.2.29-.5.32l-1.9.13a34.53,34.53,0,0,1-6.74.06A3.26,3.26,0,0,1,94.48,25a13.09,13.09,0,0,1-1.61.94,3.93,3.93,0,0,1-1.6.45,1,1,0,0,1-1-.69,1.32,1.32,0,0,1,.38-1.34,5.78,5.78,0,0,1,1.14-1,6.24,6.24,0,0,1,3.66-.94.68.68,0,0,1,.51.22.49.49,0,0,1,.11.43.55.55,0,0,1-.28.37.45.45,0,0,1,0,.57q-.15.24.39.36a7.93,7.93,0,0,0,1.33.18c.53,0,1,0,1.47,0h.78C101.36,24.61,103,24.54,104.6,24.43Zm-11.86-.18-.31.21a2.64,2.64,0,0,0-.29.24c-.07.07-.08.12,0,.14s.17,0,.39-.06a5.9,5.9,0,0,0,1.82-1.13A3.93,3.93,0,0,0,92.74,24.25Z"/><path class="cls-1" d="M134.26,9.61a15.11,15.11,0,0,1,2.48,0,3.79,3.79,0,0,1,2.23.72c.51.42.42,1.16-.29,2.2A8.78,8.78,0,0,1,135,15l-.57.29c-2,1-4.1,1.86-6.2,2.66-.38.14-.78.3-1.19.47a50.19,50.19,0,0,1-5,1.75,13.07,13.07,0,0,1-4.95.56,4.36,4.36,0,0,1-1.9-.65,14.3,14.3,0,0,0-2.21,3,3.44,3.44,0,0,0-.43,2.49c.2.73.82,1.16,1.86,1.31a13,13,0,0,0,3.86-.35A42.83,42.83,0,0,0,126,23.84c.3-.11.6-.24.9-.37,2.73-1.13,5.45-2.28,8.16-3.42a1,1,0,0,1,.78,0,.72.72,0,0,1,.45.48.67.67,0,0,1-.31.65,47.22,47.22,0,0,0-10.67,11,.35.35,0,0,0,0,.34.3.3,0,0,0,.28.15c1.88-.14,3.75-.25,5.62-.33.37,0,.61.13.69.34a.65.65,0,0,1-.11.66,1,1,0,0,1-.78.39q-3,.12-6.09.35a1.82,1.82,0,0,0-1.37.88c-.39.66-.77,1.32-1.13,2a.89.89,0,0,1-.72.43,1.12,1.12,0,0,1-.8-.2c-.22-.15-.25-.38-.11-.68.29-.55.59-1.1.9-1.64a.29.29,0,0,0,0-.32.31.31,0,0,0-.28-.14q-1.8.18-3.6.42a1,1,0,0,1-.71-.21.73.73,0,0,1-.29-.57c0-.21.17-.39.51-.52s.49-.15.65-.19a3.49,3.49,0,0,1,.66-.08,1,1,0,0,1,.39,0c1-.12,2-.23,3.07-.33a1.83,1.83,0,0,0,1.3-.79A49.16,49.16,0,0,1,131,23.37q-4.65,2.1-9.41,3.7a27,27,0,0,1-5.25,1.27,5.79,5.79,0,0,1-4.84-1.15,3.39,3.39,0,0,1-.36-3.94,14.22,14.22,0,0,1,2.6-3.73c.15-.17.32-.34.49-.51l.11-.12a2.32,2.32,0,0,1,.2-1.61,6.54,6.54,0,0,1,1-1.48A17.27,17.27,0,0,1,124,10.24a1,1,0,0,1,.83.13.78.78,0,0,1,.4.58c0,.23-.16.4-.52.52a15.88,15.88,0,0,0-7.46,4.68c-.16.18-.32.39-.49.61a34.92,34.92,0,0,1,5.79-3.49A33,33,0,0,1,134.26,9.61Zm3,2.06a.3.3,0,0,1,0-.1c.1-.23.13-.38.08-.45s-.22-.12-.52-.18h0a7.15,7.15,0,0,0-2,0l-.3,0a33.7,33.7,0,0,0-15.85,6.25A24.58,24.58,0,0,0,116.41,19a.72.72,0,0,0,.19.14,2.29,2.29,0,0,0,1.09.28,7.49,7.49,0,0,0,1.18-.07,25.57,25.57,0,0,0,4.7-1.21l.26-.08A79,79,0,0,0,132,14.9l.82-.37a18.35,18.35,0,0,0,3.49-1.82A2.63,2.63,0,0,0,137.22,11.67Z"/><path class="cls-1" d="M148.43,24.43a.84.84,0,0,1,.65.25.56.56,0,0,1,.18.51c0,.19-.2.29-.49.32l-1.9.13a34.53,34.53,0,0,1-6.74.06,3.26,3.26,0,0,1-1.82-.68,13.09,13.09,0,0,1-1.61.94,4,4,0,0,1-1.6.45,1,1,0,0,1-1-.69,1.35,1.35,0,0,1,.39-1.34,5.78,5.78,0,0,1,1.14-1,6.24,6.24,0,0,1,3.66-.94.68.68,0,0,1,.51.22.52.52,0,0,1,.11.43.56.56,0,0,1-.29.37.44.44,0,0,1,0,.57c-.09.16,0,.28.4.36a7.93,7.93,0,0,0,1.33.18c.53,0,1,0,1.46,0h.79C145.19,24.61,146.81,24.54,148.43,24.43Zm-11.86-.18-.31.21a1.94,1.94,0,0,0-.29.24c-.07.07-.08.12-.05.14s.17,0,.4-.06a6,6,0,0,0,1.82-1.13A3.93,3.93,0,0,0,136.57,24.25Z"/><path class="cls-1" d="M153,17.19a.75.75,0,0,1,.63-.35,1.05,1.05,0,0,1,.69.17.4.4,0,0,1,.11.57q-2.17,3.78-4.42,7.54a4.27,4.27,0,0,1,2,.86c.24.19.29.38.17.55a1,1,0,0,1-.59.35.93.93,0,0,1-.73-.12,2.16,2.16,0,0,0-1.61-.41l-.31.51c-.12.19-.24.4-.35.61-.37.6-.73,1.22-1.08,1.85a27.18,27.18,0,0,1-4.36,6.21.84.84,0,0,1-.54.23,1,1,0,0,1-.61-.09.47.47,0,0,1-.24-.51,15.71,15.71,0,0,1,2.06-5.63,9.15,9.15,0,0,1,4.4-4.24Q150.66,21.26,153,17.19ZM143.93,32.5a47.38,47.38,0,0,0,2.5-4.08c.08-.14.16-.28.22-.41a12.84,12.84,0,0,0-1.74,2.37A10.7,10.7,0,0,0,143.93,32.5Zm11.45-18.91a.88.88,0,0,1,.51.86.91.91,0,0,1-.63.78.87.87,0,0,1-.8-.06.71.71,0,0,1-.59-.31.86.86,0,0,1,.14-1,1.07,1.07,0,0,1,.66-.35A1.15,1.15,0,0,1,155.38,13.59Z"/><path class="cls-1" d="M161.25,16.6a.64.64,0,0,1,.58-.24.87.87,0,0,1,.59.26.48.48,0,0,1,0,.61c-.67,1-1.32,2.11-2,3.21s-1.31,2.15-2,3.21A2,2,0,0,1,160,24a1.42,1.42,0,0,1,.51,1.42,2.32,2.32,0,0,1-1.29,1.75,3.4,3.4,0,0,1-2.19.36,3,3,0,0,1-1-.35c-.29.37-.58.72-.88,1.06a.77.77,0,0,1-.56.2,1,1,0,0,1-.61-.17.41.41,0,0,1-.11-.52,10.62,10.62,0,0,1,1-1.57,5.24,5.24,0,0,1-.86-1.64.42.42,0,0,1,.2-.53,1,1,0,0,1,.66-.09.65.65,0,0,1,.51.4,5.56,5.56,0,0,0,.35.88l.39-.35q1.67-2.45,3.18-5C159.93,18.73,160.59,17.66,161.25,16.6Zm-3.32,8.5a1.3,1.3,0,0,0-.53.19c-.22.32-.45.62-.67.92a1.6,1.6,0,0,0,2.29-.66c.15-.21.1-.37-.14-.48A1.31,1.31,0,0,0,157.93,25.1Z"/><path class="cls-1" d="M179.5,25.14a.6.6,0,0,1,.59.26.53.53,0,0,1,0,.54.72.72,0,0,1-.62.29l-6,.08-6,.08-.45,0a6.2,6.2,0,0,1-1.29,0,1.21,1.21,0,0,1-1-.65,1,1,0,0,1,0-.94,18,18,0,0,0-3.19,2.55.85.85,0,0,1-.63.19.88.88,0,0,1-.59-.23c-.14-.15-.13-.34,0-.59.71-1,1.58-2.33,2.64-4s2-3.24,2.82-4.64a.61.61,0,0,1-.25-.36c0-.14.05-.27.23-.4A10.25,10.25,0,0,0,167.42,16a.9.9,0,0,1,.63-.19.81.81,0,0,1,.58.24c.15.15.14.35,0,.58a32.32,32.32,0,0,0-2.36,3.76,35.39,35.39,0,0,1-2.12,3.44q.88-.53,1.86-1a.67.67,0,0,1,.43,0,1,1,0,0,1,.45.18.38.38,0,0,1,.16.39,2.22,2.22,0,0,1-.13.49,4.63,4.63,0,0,1-.2.44,9.21,9.21,0,0,1-.55.79c-.09.3,0,.38.35.25a1.46,1.46,0,0,0,.67.1l.82-.06a3.67,3.67,0,0,1,.61-.06l2.11,0Z"/><path class="cls-1" d="M184.37,25.23a.71.71,0,0,1,.68.14.57.57,0,0,1,.18.54c0,.2-.21.35-.51.46a11.06,11.06,0,0,1-2.81.31h-.34a5.22,5.22,0,0,1-.88,0,2.59,2.59,0,0,1-.84-.21,1.18,1.18,0,0,1-.66-1,2.53,2.53,0,0,1,.33-1.2,4.76,4.76,0,0,1,.72-1,.77.77,0,0,1,.66-.22,1,1,0,0,1,.62.28c.15.17.14.36-.05.58l-.43.55a2.31,2.31,0,0,0-.31.63c0,.22,0,.35.08.4a1.05,1.05,0,0,0,.43.05.78.78,0,0,1,.22,0A10.5,10.5,0,0,0,184.37,25.23Zm-2.54-2.68a1.18,1.18,0,0,1-.56,0,.71.71,0,0,1-.44-.31.83.83,0,0,1-.06-.69.94.94,0,0,1,.9-.62.9.9,0,0,1,.58-.16,1,1,0,0,1,.56.22.6.6,0,0,1,.09.86,1.72,1.72,0,0,1-.47.46A1.59,1.59,0,0,1,181.83,22.55Z"/><path class="cls-1" d="M199.11,24.12a.87.87,0,0,1,.65.24.56.56,0,0,1,.18.52c0,.18-.2.29-.51.31-.84.06-1.67.1-2.51.14-1.93.08-3.86.2-5.77.37a12.31,12.31,0,0,0-3.8.88c-.35.5-.7,1-1,1.55a14.14,14.14,0,0,1-2.37,3.11.68.68,0,0,1-.65.12.7.7,0,0,1-.52-.43,2.93,2.93,0,0,1,.57-2.77,8.1,8.1,0,0,1,2.44-2.1,1.65,1.65,0,0,1-1.29-.38,1.44,1.44,0,0,1-.25-1.7,1.89,1.89,0,0,1,1.35-1.13.69.69,0,0,1,.64.17.54.54,0,0,1,.18.52c0,.19-.2.32-.49.38a.77.77,0,0,0-.37.8.93.93,0,0,0,.8,0,6.65,6.65,0,0,0,2-1l.09-.06a.91.91,0,0,1,1.18.31c.09.17,0,.35-.22.53a4,4,0,0,0-.53.41,36.36,36.36,0,0,1,7.33-.68C197.19,24.2,198.16,24.17,199.11,24.12Z"/><path class="cls-1" d="M211.8,25.12a.58.58,0,0,1,.58.27.54.54,0,0,1,0,.56.67.67,0,0,1-.61.3c-1.76,0-3.36.07-4.79.08s-3,0-4.84,0a8.79,8.79,0,0,1-1.54-.13,4.2,4.2,0,0,1-1.63-.58,1.11,1.11,0,0,1-.51-1.29,3.13,3.13,0,0,1,1.44-1.49,3.21,3.21,0,0,1,2-.56c.51.12.79.35.83.69a2,2,0,0,1-.24,1.16,8.66,8.66,0,0,1-.69,1.16l1.49,0h1Q207.63,25.27,211.8,25.12Zm-11.44-1a.76.76,0,0,0,.08.74,5.36,5.36,0,0,0,.65-1l-.18,0h-.08l-.27.18Z"/></g></g></svg>